
<svg width="24" height="24" viewBox="0 0 24 24" fill="none" xmlns="http://www.w3.org/2000/svg">
  <rect width="24" height="24" rx="6" fill="#1A1F2C"/>
  <path d="M17.5 11.1667C17.5 11.8486 16.9469 12.4167 16.25 12.4167C15.5531 12.4167 15 11.8486 15 11.1667C15 10.4847 15.5531 9.91669 16.25 9.91669C16.9469 9.91669 17.5 10.4847 17.5 11.1667Z" fill="#9b87f5"/>
  <path d="M19.5 8.00002C19.5 8.68198 18.9469 9.25002 18.25 9.25002C17.5531 9.25002 17 8.68198 17 8.00002C17 7.31805 17.5531 6.75002 18.25 6.75002C18.9469 6.75002 19.5 7.31805 19.5 8.00002Z" fill="#9b87f5"/>
  <path d="M9 8.00002C9 9.10459 8.10457 10 7 10C5.89543 10 5 9.10459 5 8.00002C5 6.89545 5.89543 6.00002 7 6.00002C8.10457 6.00002 9 6.89545 9 8.00002Z" fill="#9b87f5"/>
  <path fill-rule="evenodd" clip-rule="evenodd" d="M9.5 17.5C11.9853 17.5 14 15.4853 14 13H5C5 15.4853 7.01472 17.5 9.5 17.5Z" fill="#9b87f5"/>
  <path fill-rule="evenodd" clip-rule="evenodd" d="M20.5 15C20.5 16.1046 19.6046 17 18.5 17C17.3954 17 16.5 16.1046 16.5 15C16.5 13.8954 17.3954 13 18.5 13C19.6046 13 20.5 13.8954 20.5 15ZM11 13V11.5H13V13H11ZM6 11.5V13H8V11.5H6ZM9.5 10H7V8.5H9.5H11V10H9.5Z" fill="#9b87f5"/>
</svg>
